<svg xmlns="http://www.w3.org/2000/svg" width="24" height="24" viewBox="0 0 24 24" fill="none" stroke="#2E7D32" stroke-width="2" stroke-linecap="round" stroke-linejoin="round">
  <path d="M7 19H4.815a1.83 1.83 0 0 1-1.57-.881 1.785 1.785 0 0 1-.004-1.784L7.196 9.5" />
  <path d="M11 19h8.203a1.83 1.83 0 0 0 1.556-.89 1.784 1.784 0 0 0 0-1.775l-1.226-2.12" />
  <path d="m14 16-3 3 3 3" />
  <path d="M8.293 13.596 4.875 9.5l3.326-4.25" />
  <path d="m12.957 6.5 5.043 8.706M14.5 6.5l1.5 2.5h3.563a1.83 1.83 0 0 0 1.556-.89 1.784 1.784 0 0 0 0-1.775l-1.376-2.314A1.83 1.83 0 0 0 18.155 3H16" />
  <path d="m13.5 6-1.5-3h-3.25" />
</svg>